<?xml version="1.0" encoding="iso-8859-1"?>
<!-- Uploaded to: SVG Repo, www.svgrepo.com, Generator: SVG Repo Mixer Tools -->
<svg fill="#000000" height="800px" width="800px" version="1.1" id="Layer_1" xmlns="http://www.w3.org/2000/svg" xmlns:xlink="http://www.w3.org/1999/xlink" 
	 viewBox="0 0 511.998 511.998" xml:space="preserve">
<g>
	<g>
		<path d="M366.838,34.148c-45.529-45.531-119.614-45.532-165.146,0c-22.411,22.41-34.657,52.898-34.142,84.488L47.229,276.519
			c-0.026,0.033-0.051,0.068-0.077,0.101c-12.893,17.19-14.252,40.073-4.819,58.439L5.089,372.305
			c-6.515,6.514-6.515,17.077,0,23.592s17.077,6.515,23.592,0l37.244-37.244c18.474,9.489,41.328,8.016,58.44-4.818
			c0.034-0.026,0.068-0.051,0.101-0.077l157.885-120.322c31.591,0.535,62.064-11.727,84.473-34.129
			c0.004-0.004,0.01-0.009,0.014-0.013s0.009-0.01,0.013-0.016C412.369,153.745,412.364,79.673,366.838,34.148z M104.304,327.175
			c-8.617,6.429-20.832,5.549-28.438-2.055c-7.603-7.604-8.484-19.815-2.059-28.431l112.369-147.45l65.57,65.57L104.304,327.175z
			 M284.178,200.059l-83.254-83.254c-0.013-16.482,4.816-32.477,13.776-46.058l115.536,115.536
			C316.654,195.243,300.656,200.069,284.178,200.059z M353.857,162.718L238.268,47.131c32.369-21.409,76.495-17.875,104.979,10.609
			C371.73,86.223,375.265,130.349,353.857,162.718z"/>
	</g>
</g>
<g>
	<g>
		<path d="M201.692,199.292c-6.515-6.515-17.077-6.515-23.592,0l-23.592,23.592c-6.515,6.514-6.515,17.077,0,23.592
			c3.258,3.26,7.526,4.887,11.797,4.887c4.268,0,8.539-1.629,11.796-4.887l23.592-23.592
			C208.207,216.371,208.207,205.807,201.692,199.292z"/>
	</g>
</g>
<g>
	<g>
		<path d="M504.465,203.463c-4.584-3.104-10.408-3.732-15.548-1.675l-166.823,66.729c-6.333,2.532-10.487,8.667-10.487,15.489
			c0,5.928,0,127.533,0,133.287c-8.511-3.517-18.007-5.39-27.804-5.39c-35.006,0-61.169,23.032-61.169,50.047
			c0,27.03,26.182,50.047,61.169,50.047c35.034,0,61.169-23.057,61.169-50.047V362.03l133.459-53.383v75.282
			c-8.511-3.517-18.007-5.389-27.804-5.389c-35.034,0-61.169,23.057-61.169,50.047c0,27.181,26.385,50.047,61.169,50.047
			c35.034,0,61.169-23.057,61.169-50.047c0-8.117,0-203.48,0-211.31C511.794,211.742,509.049,206.566,504.465,203.463z
			 M283.802,478.634c-15.914,0-27.804-8.807-27.804-16.682c0-7.875,11.89-16.682,27.804-16.682c15.914,0,27.804,8.807,27.804,16.682
			C311.606,469.827,299.716,478.634,283.802,478.634z M478.43,272.713l-133.459,53.383v-30.794l133.459-53.383V272.713z
			 M450.626,445.269c-15.914,0-27.804-8.807-27.804-16.682c0-7.875,11.89-16.682,27.804-16.682s27.804,8.807,27.804,16.682
			C478.43,436.462,466.54,445.269,450.626,445.269z"/>
	</g>
</g>
</svg>