<?xml version="1.0" encoding="iso-8859-1"?>
<!-- Uploaded to: SVG Repo, www.svgrepo.com, Generator: SVG Repo Mixer Tools -->
<!DOCTYPE svg PUBLIC "-//W3C//DTD SVG 1.1//EN" "http://www.w3.org/Graphics/SVG/1.1/DTD/svg11.dtd">
<svg fill="#000000" version="1.1" id="Capa_1" xmlns="http://www.w3.org/2000/svg" xmlns:xlink="http://www.w3.org/1999/xlink" 
	 width="80px" height="80px" viewBox="0 0 64.844 64.844"
	 xml:space="preserve">
<g>
	<g>
		<path d="M2.214,23.981v35.089h2.083V23.981c1.278-0.392,2.214-1.567,2.214-2.974v-8.854c0-1.406-0.936-2.582-2.214-2.974V5.773
			H2.214V9.18C0.936,9.571,0,10.747,0,12.153v8.854C0,22.414,0.936,23.59,2.214,23.981z M1.562,12.153
			c0-0.521,0.258-0.979,0.651-1.263c0.257-0.187,0.57-0.299,0.911-0.299h0.261c0.341,0,0.654,0.113,0.911,0.299
			c0.393,0.284,0.651,0.743,0.651,1.263v8.854c0,0.521-0.258,0.979-0.651,1.263c-0.257,0.187-0.57,0.299-0.911,0.299H3.125
			c-0.341,0-0.654-0.113-0.911-0.299c-0.393-0.284-0.651-0.743-0.651-1.263V12.153z"/>
		<path d="M9.505,29.19v29.881h2.083V29.19c1.278-0.392,2.213-1.567,2.213-2.974v-8.854c0-1.406-0.936-2.582-2.213-2.974V5.773
			H9.505v8.614c-1.278,0.392-2.213,1.568-2.213,2.974v8.854C7.292,27.623,8.227,28.798,9.505,29.19z M8.854,17.362
			c0-0.521,0.258-0.979,0.651-1.263c0.257-0.187,0.571-0.299,0.912-0.299h0.26c0.341,0,0.654,0.112,0.912,0.299
			c0.393,0.284,0.651,0.742,0.651,1.263v8.854c0,0.521-0.258,0.979-0.651,1.264c-0.257,0.187-0.571,0.299-0.912,0.299h-0.26
			c-0.341,0-0.654-0.112-0.912-0.299c-0.393-0.284-0.651-0.743-0.651-1.264V17.362z"/>
		<path d="M16.797,33.357v25.714h2.083V33.357c1.278-0.393,2.213-1.568,2.213-2.974v-8.854c0-1.406-0.935-2.582-2.213-2.974V5.773
			h-2.083v12.781c-1.278,0.392-2.213,1.567-2.213,2.974v8.854C14.583,31.789,15.519,32.964,16.797,33.357z M16.146,21.528
			c0-0.521,0.258-0.979,0.651-1.263c0.257-0.187,0.571-0.299,0.912-0.299h0.26c0.341,0,0.654,0.113,0.912,0.299
			c0.393,0.284,0.651,0.743,0.651,1.263v8.854c0,0.521-0.258,0.979-0.651,1.263c-0.257,0.187-0.571,0.299-0.912,0.299h-0.26
			c-0.341,0-0.654-0.113-0.912-0.299c-0.393-0.284-0.651-0.743-0.651-1.263V21.528z"/>
		<path d="M24.089,37.524v21.547h2.083V37.524c1.278-0.393,2.214-1.568,2.214-2.975v-8.854c0-1.407-0.936-2.583-2.214-2.974V5.773
			h-2.083v16.948c-1.278,0.392-2.214,1.567-2.214,2.974v8.854C21.875,35.956,22.811,37.131,24.089,37.524z M23.438,25.695
			c0-0.521,0.258-0.979,0.651-1.264c0.257-0.187,0.57-0.299,0.911-0.299h0.261c0.341,0,0.654,0.112,0.911,0.299
			c0.393,0.285,0.651,0.743,0.651,1.264v8.854c0,0.521-0.258,0.979-0.651,1.264c-0.257,0.187-0.57,0.299-0.911,0.299H25
			c-0.341,0-0.654-0.112-0.911-0.299c-0.393-0.285-0.651-0.743-0.651-1.264V25.695z"/>
		<path d="M31.38,41.69v17.381h2.083V41.69c1.278-0.393,2.214-1.568,2.214-2.974v-8.854c0-1.406-0.936-2.582-2.214-2.974V5.773
			H31.38v21.114c-1.278,0.392-2.213,1.568-2.213,2.974v8.854C29.167,40.122,30.102,41.297,31.38,41.69z M30.729,29.862
			c0-0.521,0.258-0.979,0.651-1.264c0.257-0.187,0.571-0.299,0.912-0.299h0.26c0.341,0,0.654,0.112,0.911,0.299
			c0.393,0.285,0.651,0.743,0.651,1.264v8.854c0,0.521-0.259,0.979-0.651,1.263c-0.257,0.188-0.57,0.3-0.911,0.3h-0.26
			c-0.341,0-0.654-0.112-0.912-0.3c-0.393-0.284-0.651-0.742-0.651-1.263V29.862z"/>
		<path d="M38.672,45.857v13.214h2.083V45.857c1.277-0.393,2.214-1.568,2.214-2.975v-8.854c0-1.407-0.937-2.583-2.214-2.974V5.773
			h-2.083v25.281c-1.278,0.392-2.214,1.567-2.214,2.974v8.854C36.458,44.289,37.394,45.464,38.672,45.857z M38.021,34.029
			c0-0.521,0.259-0.979,0.651-1.264c0.257-0.187,0.57-0.299,0.911-0.299h0.261c0.341,0,0.653,0.113,0.911,0.299
			c0.393,0.285,0.651,0.742,0.651,1.264v8.854c0,0.521-0.259,0.979-0.651,1.264c-0.258,0.188-0.57,0.299-0.911,0.299h-0.261
			c-0.341,0-0.654-0.111-0.911-0.299c-0.393-0.285-0.651-0.742-0.651-1.264V34.029z"/>
		<path d="M45.963,43.774v15.297h2.084V43.774c1.277-0.393,2.213-1.568,2.213-2.975v-8.854c0-1.407-0.936-2.583-2.213-2.974V5.773
			h-2.084v23.198c-1.277,0.392-2.213,1.567-2.213,2.974v8.854C43.75,42.206,44.686,43.381,45.963,43.774z M45.313,31.945
			c0-0.521,0.258-0.979,0.65-1.264c0.258-0.187,0.571-0.299,0.912-0.299h0.26c0.341,0,0.654,0.112,0.912,0.299
			c0.393,0.285,0.65,0.743,0.65,1.264v8.854c0,0.521-0.258,0.979-0.65,1.264c-0.258,0.187-0.571,0.299-0.912,0.299h-0.26
			c-0.341,0-0.654-0.112-0.912-0.299c-0.393-0.285-0.65-0.743-0.65-1.264V31.945z"/>
		<path d="M53.255,41.69v17.381h2.083V41.69c1.278-0.393,2.214-1.568,2.214-2.974v-8.854c0-1.406-0.936-2.582-2.214-2.974V5.773
			h-2.083v21.114c-1.277,0.392-2.214,1.568-2.214,2.974v8.854C51.042,40.122,51.978,41.297,53.255,41.69z M52.604,29.862
			c0-0.521,0.259-0.979,0.651-1.264c0.258-0.187,0.57-0.299,0.911-0.299h0.261c0.341,0,0.654,0.112,0.911,0.299
			c0.393,0.285,0.651,0.743,0.651,1.264v8.854c0,0.521-0.259,0.979-0.651,1.263c-0.257,0.188-0.57,0.3-0.911,0.3h-0.261
			c-0.341,0-0.653-0.112-0.911-0.3c-0.393-0.284-0.651-0.742-0.651-1.263V29.862z"/>
		<path d="M62.63,24.805V5.773h-2.083v19.031c-1.278,0.392-2.214,1.567-2.214,2.974v8.854c0,1.406,0.936,2.582,2.214,2.975v19.464
			h2.083V39.607c1.277-0.393,2.214-1.568,2.214-2.975v-8.854C64.844,26.372,63.908,25.196,62.63,24.805z M63.282,36.632
			c0,0.521-0.259,0.979-0.651,1.264c-0.258,0.188-0.57,0.299-0.911,0.299h-0.261c-0.341,0-0.654-0.111-0.911-0.299
			c-0.393-0.285-0.651-0.742-0.651-1.264v-8.854c0-0.521,0.259-0.979,0.651-1.263c0.257-0.187,0.57-0.299,0.911-0.299h0.261
			c0.341,0,0.653,0.113,0.911,0.299c0.393,0.284,0.651,0.743,0.651,1.263V36.632z"/>
	</g>
</g>
</svg>