<?xml version="1.0" encoding="iso-8859-1"?>
<!-- Uploaded to: SVG Repo, www.svgrepo.com, Generator: SVG Repo Mixer Tools -->
<svg fill="#000000" height="800px" width="800px" version="1.1" id="Capa_1" xmlns="http://www.w3.org/2000/svg" xmlns:xlink="http://www.w3.org/1999/xlink" 
	 viewBox="0 0 512.004 512.004" xml:space="preserve">
<g>
	<g>
		<path d="M491.243,235.245h-6.919v-102.63c0-11.463-9.294-20.757-20.757-20.757c-11.463,0-20.757,9.294-20.757,20.757v102.63
			h-41.514V96.867c0-11.463-9.294-20.757-20.757-20.757c-11.463,0-20.757,9.294-20.757,20.757v138.378H318.27v-76.108
			c0-11.463-9.293-20.757-20.757-20.757c-11.463,0-20.757,9.294-20.757,20.757v76.108h-41.514V48.434
			c0-11.463-9.293-20.757-20.757-20.757c-11.464,0-20.757,9.294-20.757,20.757v186.811h-41.513V131.461
			c0-11.463-9.294-20.757-20.757-20.757s-20.757,9.294-20.757,20.757v103.784H69.189v-62.27c0-11.463-9.294-20.757-20.757-20.757
			s-20.757,9.293-20.757,20.757v62.27h-6.919C9.294,235.245,0,244.539,0,256.002s9.294,20.757,20.757,20.757h6.919v62.27
			c0,11.463,9.294,20.757,20.757,20.757c11.463,0,20.757-9.294,20.757-20.757v-62.27h41.513v103.784
			c0,11.463,9.294,20.757,20.757,20.757s20.757-9.294,20.757-20.757V276.759h41.513V463.57c0,11.463,9.294,20.757,20.757,20.757
			c11.463,0,20.757-9.294,20.757-20.757V276.759h41.514v76.108c0,11.463,9.293,20.757,20.757,20.757
			c11.463,0,20.757-9.294,20.757-20.757v-76.108h41.514v138.378c0,11.463,9.293,20.757,20.757,20.757S401.3,426.6,401.3,415.137
			V276.759h41.514v104.938c0,11.463,9.293,20.757,20.757,20.757s20.757-9.294,20.757-20.757V276.759h6.919
			c11.463,0,20.757-9.294,20.757-20.757C512.004,244.539,502.707,235.245,491.243,235.245z"/>
	</g>
</g>
</svg>