<!DOCTYPE svg PUBLIC "-//W3C//DTD SVG 1.1//EN" "http://www.w3.org/Graphics/SVG/1.1/DTD/svg11.dtd">
<!-- Uploaded to: SVG Repo, www.svgrepo.com, Transformed by: SVG Repo Mixer Tools -->
<svg fill="#000000" height="220px" width="220px" version="1.1" id="Layer_1" xmlns="http://www.w3.org/2000/svg" xmlns:xlink="http://www.w3.org/1999/xlink" viewBox="-20.48 -20.48 552.96 552.96" xml:space="preserve" stroke="#000000" stroke-width="7.68">
<g id="SVGRepo_bgCarrier" stroke-width="0"/>
<g id="SVGRepo_tracerCarrier" stroke-linecap="round" stroke-linejoin="round"/>
<g id="SVGRepo_iconCarrier"> <g> <g> <path d="M125.585,71.203C56.34,71.203,0,127.542,0,196.788c0,35.443,17.5,60.679,36.028,87.387 c17.283,24.915,35.151,50.679,41.387,88.085c4.962,29.764,15.962,50.198,32.698,60.727c8.255,5.189,17.698,7.811,27.896,7.811 c6.17,0,12.613-0.953,19.245-2.887c32.651-9.462,61.057-75.349,64.189-82.83c2.057-4.915-0.264-10.576-5.189-12.641 c-4.915-2.057-10.576,0.255-12.642,5.189c-10.443,24.962-33.736,66.509-51.745,71.736c-8.462,2.443-20.811,3.972-31.462-2.736 c-11.868-7.462-19.915-23.453-23.934-47.538c-6.943-41.679-26.934-70.5-44.566-95.924c-17.481-25.208-32.585-46.981-32.585-76.377 c0-58.594,47.67-106.264,106.264-106.264s106.264,47.67,106.264,106.264c0,5.34,4.321,9.66,9.66,9.66 c5.339,0,9.66-4.321,9.66-9.66C251.17,127.542,194.83,71.203,125.585,71.203z"/> </g> </g> <g> <g> <path d="M168.703,264.793c5.37-15.672,11.788-42.781,4.891-70.344c-5.755-23.028-21.245-38.707-39.462-39.943 c-9.085-0.661-31.802,1.943-46.5,38.698c-1.981,4.953,0.434,10.576,5.387,12.557c4.906,1.972,10.575-0.425,12.557-5.387 c6.934-17.339,17.208-27.094,27.255-26.594c9.689,0.661,18.34,10.613,22.028,25.349c8.641,34.575-8.764,70.283-8.943,70.641 c-0.285,0.578-0.502,1.17-0.668,1.771c-6.113,5.316-10.002,13.13-10.002,21.852c0,15.981,13,28.981,28.981,28.981 c15.981,0,28.981-13,28.981-28.981C193.208,278.936,182.559,266.955,168.703,264.793z M164.226,303.052 c-5.33,0-9.66-4.33-9.66-9.66c0-5.33,4.33-9.66,9.66-9.66c5.33,0,9.66,4.33,9.66,9.66 C173.887,298.722,169.557,303.052,164.226,303.052z"/> </g> </g> <g> <g> <path d="M502.34,255.099h-57.962c-2.934,0-5.708,1.156-7.547,3.448l-27.821,34.696l-42.481-118.979 c-1.415-3.953-5.34-6.455-9.368-6.436c-4.179,0.122-7.811,2.915-8.99,6.924l-43.076,146.436l-27.057-33.658 c-1.84-2.292-4.613-3.451-7.547-3.451h-57.962c-5.34,0-9.66,4.321-9.66,9.66s4.321,9.66,9.66,9.66h53.321l35.736,44.505 c1.858,2.312,4.642,3.535,7.547,3.535c0.623,0,1.245-0.101,1.868-0.224c3.528-0.698,6.387-3.323,7.396-6.776l39.925-135.745 l38.321,107.267c1.179,3.302,4.047,5.705,7.5,6.281c3.425,0.556,6.943-0.58,9.142-3.316l35.736-44.507h53.321 c5.34,0,9.66-4.321,9.66-9.66S507.679,255.099,502.34,255.099z"/> </g> </g> </g>
</svg>