<?xml version="1.0" encoding="iso-8859-1"?>
<!-- Uploaded to: SVG Repo, www.svgrepo.com, Generator: SVG Repo Mixer Tools -->
<svg fill="#000000" height="800px" width="800px" version="1.1" id="Layer_1" xmlns="http://www.w3.org/2000/svg" xmlns:xlink="http://www.w3.org/1999/xlink" 
	 viewBox="0 0 512 512" xml:space="preserve">
<g>
	<g>
		<g>
			<path d="M464.107,117.333h-19.646c-9.132-30.207-34.599-64-60.461-64h-97.83l-36.418-36.418
				c-4.001-4.001-9.427-6.248-15.085-6.248H69.461c-26.375,0-48.128,20.784-48.128,46.933v67.796C8.472,134.008,0,148.688,0,165.333
				v288c0,26.482,21.435,48,47.893,48h416.213c26.458,0,47.893-21.518,47.893-48v-288C512,138.852,490.565,117.333,464.107,117.333z
				 M64,57.6c0-2.139,2.227-4.267,5.461-4.267H225.83l36.418,36.418c4.001,4.001,9.427,6.248,15.085,6.248H384
				c-0.854,0,4.813,5.208,10.449,14.585c1.321,2.198,2.56,4.475,3.694,6.749H64V57.6z M469.333,453.333
				c0,2.955-2.37,5.333-5.227,5.333H47.893c-2.857,0-5.227-2.379-5.227-5.333v-288c0-2.955,2.37-5.333,5.227-5.333h378.773h37.44
				c2.857,0,5.227,2.379,5.227,5.333V453.333z"/>
			<path d="M405.232,200.656c-0.01-0.109-0.021-0.219-0.033-0.328c-0.011-0.103-0.018-0.205-0.031-0.308
				c-0.061-0.491-0.145-0.973-0.238-1.451c-0.025-0.131-0.051-0.261-0.079-0.391c-0.122-0.572-0.267-1.133-0.433-1.685
				c-0.034-0.112-0.069-0.224-0.104-0.336c-0.182-0.569-0.386-1.127-0.612-1.672c-0.034-0.083-0.069-0.165-0.105-0.247
				c-0.244-0.567-0.51-1.12-0.799-1.659c-0.03-0.057-0.061-0.113-0.092-0.169c-0.304-0.553-0.63-1.091-0.979-1.612
				c-0.029-0.043-0.058-0.085-0.086-0.127c-0.356-0.523-0.734-1.029-1.134-1.517c-0.035-0.042-0.07-0.084-0.105-0.126
				c-0.398-0.478-0.816-0.938-1.253-1.379c-0.049-0.05-0.099-0.098-0.149-0.148c-0.43-0.424-0.876-0.831-1.339-1.217
				c-0.07-0.058-0.14-0.115-0.21-0.172c-0.454-0.369-0.922-0.719-1.404-1.05c-0.089-0.061-0.18-0.121-0.27-0.181
				c-0.477-0.316-0.966-0.614-1.468-0.892c-0.102-0.057-0.206-0.111-0.309-0.166c-0.507-0.269-1.024-0.519-1.553-0.748
				c-0.102-0.044-0.203-0.086-0.306-0.128c-0.547-0.226-1.104-0.431-1.671-0.611c-0.087-0.028-0.174-0.054-0.261-0.081
				c-0.595-0.181-1.2-0.337-1.814-0.466c-0.064-0.013-0.127-0.026-0.191-0.039c-0.642-0.129-1.292-0.228-1.951-0.298
				c-0.046-0.005-0.093-0.01-0.139-0.014c-0.667-0.066-1.341-0.1-2.022-0.102c-0.031,0-0.061-0.005-0.091-0.005
				c-0.029,0-0.056,0.004-0.084,0.004c-0.638,0.003-1.28,0.036-1.926,0.097c-0.11,0.01-0.219,0.021-0.328,0.033
				c-0.103,0.011-0.205,0.018-0.308,0.031l-170.667,21.333c-0.491,0.061-0.973,0.145-1.451,0.238
				c-0.131,0.025-0.261,0.051-0.391,0.079c-0.572,0.122-1.133,0.267-1.685,0.433c-0.112,0.034-0.224,0.069-0.336,0.104
				c-0.569,0.182-1.126,0.386-1.672,0.612c-0.083,0.034-0.165,0.069-0.248,0.105c-0.567,0.244-1.121,0.51-1.659,0.799
				c-0.056,0.03-0.111,0.061-0.167,0.091c-0.553,0.304-1.091,0.63-1.612,0.979c-0.043,0.029-0.086,0.059-0.129,0.088
				c-0.523,0.356-1.029,0.734-1.516,1.133c-0.042,0.034-0.083,0.07-0.125,0.104c-0.478,0.398-0.939,0.816-1.379,1.254
				c-0.05,0.049-0.098,0.099-0.148,0.149c-0.424,0.43-0.831,0.876-1.217,1.339c-0.058,0.07-0.115,0.14-0.172,0.211
				c-0.368,0.453-0.719,0.92-1.049,1.402c-0.062,0.09-0.122,0.182-0.183,0.273c-0.316,0.477-0.614,0.965-0.891,1.467
				c-0.056,0.102-0.111,0.205-0.166,0.308c-0.27,0.507-0.52,1.025-0.748,1.553c-0.044,0.101-0.086,0.203-0.128,0.305
				c-0.227,0.547-0.431,1.104-0.612,1.671c-0.028,0.086-0.054,0.173-0.081,0.26c-0.182,0.595-0.337,1.2-0.467,1.815
				c-0.013,0.064-0.026,0.127-0.039,0.191c-0.129,0.642-0.228,1.293-0.298,1.952c-0.005,0.046-0.01,0.092-0.014,0.138
				c-0.066,0.667-0.1,1.342-0.102,2.023c0,0.031-0.005,0.061-0.005,0.091v64h-27.422c-34.836,0-57.92,29.65-57.92,65.045
				c0,34.774,28.191,62.955,62.955,62.955h7.125c34.759,0,57.92-23.141,57.92-57.899v-48.599c0-0.057,0.009-0.112,0.009-0.169
				v-66.501l128-16V288h-27.422c-34.836,0-57.92,29.65-57.92,65.045c0,34.774,28.191,62.955,62.955,62.955h7.125
				c34.759,0,57.92-23.141,57.92-57.899v-48.599c0-0.057,0.009-0.112,0.009-0.169V202.667c0-0.029-0.004-0.056-0.004-0.084
				C405.326,201.945,405.293,201.302,405.232,200.656z M191.991,358.101c0,11.185-4.05,15.232-15.253,15.232h-7.125
				c-11.203,0-20.288-9.082-20.288-20.288c0-13.838,6.649-22.379,15.253-22.379h27.413V358.101z M362.658,358.101
				c0,11.185-4.05,15.232-15.253,15.232h-7.125c-11.203,0-20.288-9.082-20.288-20.288c0-13.838,6.649-22.379,15.253-22.379h27.413
				V358.101z"/>
		</g>
	</g>
</g>
</svg>