<?xml version="1.0" encoding="iso-8859-1"?>
<!-- Uploaded to: SVG Repo, www.svgrepo.com, Generator: SVG Repo Mixer Tools -->
<!DOCTYPE svg PUBLIC "-//W3C//DTD SVG 1.1//EN" "http://www.w3.org/Graphics/SVG/1.1/DTD/svg11.dtd">
<svg fill="#000000" version="1.1" id="Capa_1" xmlns="http://www.w3.org/2000/svg" xmlns:xlink="http://www.w3.org/1999/xlink" 
	 width="800px" height="800px" viewBox="0 0 98.121 98.121"
	 xml:space="preserve">
<g>
	<g>
		<path d="M23.819,14.874h3.273v21.797c0,1.646,1.331,2.973,2.968,2.973h8.102c1.637,0,2.971-1.327,2.971-2.973V14.874h3.276
			c0.751,0,1.435-0.438,1.752-1.119c0.313-0.686,0.202-1.485-0.283-2.061L37.109,1.385C36.362,0.504,35.267,0,34.111,0
			c-1.151,0-2.247,0.504-2.998,1.385l-8.766,10.309c-0.488,0.576-0.598,1.375-0.28,2.061C22.38,14.436,23.067,14.874,23.819,14.874z
			"/>
		<path d="M79.199,18.616h-35.5V29.18h32.037v40.025H22.271V29.181h1.828V18.616H18.85c-3.891,0-7.037,2.948-7.037,6.837v47.091
			c0,3.905,3.146,7.218,7.037,7.218h24.934v7.794h-9.259c-3.54,0-6.593,2.877-6.593,6.41v4.155h42.246v-4.155
			c0-3.533-2.717-6.41-6.249-6.41h-9.591v-7.794h24.859c3.896,0,7.111-3.312,7.111-7.218v-47.09
			C86.31,21.565,83.094,18.616,79.199,18.616z"/>
		<path d="M56.623,51.158c-3.314,0-6.006,2.048-6.006,4.574c0,2.522,2.69,4.57,6.006,4.57s6.008-2.048,6.008-4.57
			c0-0.099,0-11.625,0-18.042c0-0.97-0.469-1.882-1.258-2.447c-0.787-0.564-1.802-0.714-2.723-0.403l-13.208,4.472
			c-1.687,0.572-2.822,2.151-2.834,3.934l-0.043,11.58c-0.366-0.053-0.739-0.084-1.124-0.084c-3.315,0-6.006,2.049-6.006,4.572
			s2.69,4.574,6.006,4.574s6.006-2.051,6.006-4.574V48.023c0-0.741,0.473-1.4,1.175-1.64l7.69-2.605
			c0.332-0.108,0.695-0.055,0.979,0.147c0.287,0.207,0.455,0.533,0.455,0.884v6.43C57.379,51.188,57.008,51.158,56.623,51.158z"/>
	</g>
</g>
</svg>