<?xml version="1.0" encoding="iso-8859-1"?>
<!-- Uploaded to: SVG Repo, www.svgrepo.com, Generator: SVG Repo Mixer Tools -->
<!DOCTYPE svg PUBLIC "-//W3C//DTD SVG 1.1//EN" "http://www.w3.org/Graphics/SVG/1.1/DTD/svg11.dtd">
<svg fill="#000000" version="1.1" id="Capa_1" xmlns="http://www.w3.org/2000/svg" xmlns:xlink="http://www.w3.org/1999/xlink" 
	 width="800px" height="800px" viewBox="0 0 485.945 485.945"
	 xml:space="preserve">
<g>
	<path d="M477.705,380.304H428.01v-98.658c0-4.555-3.689-8.239-8.24-8.239h-51.785c-4.551,0-8.24,3.687-8.24,8.239v98.658h-30.512
		V115.957c0-4.547-3.689-8.24-8.238-8.24h-51.787c-4.551,0-8.24,3.693-8.24,8.24v264.347h-30.511V220.48
		c0-4.546-3.689-8.239-8.24-8.239h-51.787c-4.551,0-8.24,3.693-8.24,8.239v159.824h-30.51V156.047c0-4.546-3.689-8.24-8.24-8.24
		H71.652c-4.551,0-8.24,3.694-8.24,8.24v224.256H16.48V97.401c0-4.547-3.689-8.24-8.24-8.24c-4.55,0-8.24,3.693-8.24,8.24v291.143
		c0,4.547,3.69,8.24,8.24,8.24h63.411h51.787h46.991h51.787h46.991h51.787h46.99h51.787h57.936c4.551,0,8.238-3.693,8.238-8.24
		C485.945,383.989,482.256,380.304,477.705,380.304z M79.89,380.304V164.287h35.307v216.017H79.89z M178.668,380.304V228.72h35.306
		v151.583H178.668z M277.445,380.304V124.198h35.309v256.105H277.445z M376.225,380.304v-90.418h35.305v90.418H376.225z"/>
</g>
</svg>